<svg width="564.9287597656249px" height="162.79999999999998px" xmlns="http://www.w3.org/2000/svg" viewBox="-32.464379882812466 -6.3999999999999915 564.9287597656249 162.79999999999998" style="background: rgb(46, 49, 46);" preserveAspectRatio="xMidYMid"><defs><filter id="editing-hover" x="-100%" y="-100%" width="300%" height="300%"><feFlood flood-color="#fc7753" result="flood"></feFlood><feComposite operator="in" in2="SourceAlpha" in="flood" result="shadow"></feComposite><feOffset dx="-2" dy="-1.9" in="SourceGraphic" result="offset-1"></feOffset><feOffset dx="2" dy="1.9" in="shadow" result="offset-2"></feOffset><feMerge><feMergeNode in="offset-2"></feMergeNode><feMergeNode in="offset-1"></feMergeNode></feMerge></filter></defs><g filter="url(#editing-hover)"><g transform="translate(51.68496894836426, 106.54500007629395)"><path d="M9.18 0L-1.17 0L15.12-59.40L33.93-59.40L38.07-25.47L54.81-59.40L70.56-59.40L72.18-14.94L72.18-14.94Q72.54-6.12 76.86-3.42L76.86-3.42L76.86-3.42Q75.87-1.62 72.99 0.09L72.99 0.09L72.99 0.09Q70.11 1.80 66.28 1.80L66.28 1.80L66.28 1.80Q62.46 1.80 60.21 0.72L60.21 0.72L60.21 0.72Q57.96-0.36 56.70-2.16L56.70-2.16L56.70-2.16Q54.45-5.40 54.45-11.61L54.45-11.61L54.45-39.42L36.72 0L25.56 0L19.26-40.41L9.18 0ZM120.24 1.80L120.24 1.80L120.24 1.80Q108.72 1.80 107.64-14.58L107.64-14.58L92.16-14.58L92.16-14.58Q90.36-10.44 89.10-6.84L89.10-6.84L86.76 0L74.16 0L102.51-59.40L121.86-59.40L125.64-15.66L125.64-15.66Q126.54-6.21 130.14-3.42L130.14-3.42L130.14-3.42Q127.53 1.80 120.24 1.80ZM99.90-32.58L94.95-21.15L107.37-21.15L106.29-44.28L106.29-46.71L99.90-32.58ZM138.15-56.07L138.15-56.07L138.15-56.07Q142.38-61.02 149.40-61.02L149.40-61.02L149.40-61.02Q154.98-61.02 157.95-58.86L157.95-58.86L157.95-58.86Q160.92-56.61 162.90-51.12L162.90-51.12L166.68-40.41L180.27-59.31L192.42-59.31L170.37-30.06L176.04-14.04L176.04-14.04Q177.30-10.44 179.50-7.79L179.50-7.79L179.50-7.79Q181.71-5.13 183.69-4.68L183.69-4.68L183.69-4.68Q181.89-1.26 178.78 0.27L178.78 0.27L178.78 0.27Q175.68 1.80 171.13 1.80L171.13 1.80L171.13 1.80Q166.59 1.80 163.39-1.17L163.39-1.17L163.39-1.17Q160.20-4.14 157.77-10.80L157.77-10.80L155.16-18L141.57 0L130.50 0L151.20-28.71L144.72-46.80L144.72-46.80Q143.28-50.76 141.84-52.78L141.84-52.78L141.84-52.78Q140.40-54.81 138.15-56.07ZM198.36 0L203.58-26.46L203.58-26.46Q200.97-50.85 191.79-56.07L191.79-56.07L191.79-56.07Q193.68-58.41 196.74-59.71L196.74-59.71L196.74-59.71Q199.80-61.02 203.49-61.02L203.49-61.02L203.49-61.02Q207.18-61.02 209.97-59.71L209.97-59.71L209.97-59.71Q212.76-58.41 214.56-55.62L214.56-55.62L214.56-55.62Q217.98-50.31 217.98-37.62L217.98-37.62L217.98-31.14L217.98-31.14Q223.38-46.98 228.78-53.82L228.78-53.82L228.78-53.82Q234.27-60.84 241.11-60.84L241.11-60.84L241.11-60.84Q243.81-60.84 245.61-59.45L245.61-59.45L245.61-59.45Q247.41-58.05 248.31-55.98L248.31-55.98L248.31-55.98Q241.38-52.92 234.72-44.10L234.72-44.10L234.72-44.10Q228.06-35.28 223.74-22.95L223.74-22.95L218.43 0L198.36 0ZM242.19-14.58L242.19-14.58L242.19-14.58Q239.31-16.65 239.31-20.61L239.31-20.61L239.31-20.61Q239.31-22.77 240.39-24.52L240.39-24.52L240.39-24.52Q241.47-26.28 243.63-26.55L243.63-26.55L261.36-26.55L261.36-26.55Q264.33-26.55 265.23-28.35L265.23-28.35L265.23-28.35Q266.67-27.54 267.30-25.83L267.30-25.83L267.30-25.83Q267.93-24.12 267.93-22.32L267.93-22.32L267.93-22.32Q267.93-20.52 266.53-18.77L266.53-18.77L266.53-18.77Q265.14-17.01 263.07-16.83L263.07-16.83L246.60-16.83L246.60-16.83Q244.71-16.83 243.81-16.25L243.81-16.25L243.81-16.25Q242.91-15.66 242.19-14.58ZM332.55-37.35L332.55-37.35L332.55-37.35Q332.55 0.99 290.97 0.99L290.97 0.99L290.97 0.99Q284.31 0.99 273.33-0.63L273.33-0.63L283.41-53.82L283.41-53.82Q284.13-57.42 284.58-59.49L284.58-59.49L284.58-59.49Q298.26-60.48 304.33-60.48L304.33-60.48L304.33-60.48Q310.41-60.48 315.99-59.22L315.99-59.22L315.99-59.22Q321.57-57.96 325.26-55.17L325.26-55.17L325.26-55.17Q332.55-49.68 332.55-37.35ZM314.01-40.68L314.01-40.68L314.01-40.68Q314.01-54.09 304.38-54.09L304.38-54.09L303.48-54.09L303.48-54.09Q303.03-54.09 302.58-54L302.58-54L293.31-5.67L293.31-5.67Q293.67-5.49 294.03-5.49L294.03-5.49L294.75-5.49L294.75-5.49Q298.08-5.49 301.54-7.56L301.54-7.56L301.54-7.56Q305.01-9.63 307.71-13.86L307.71-13.86L307.71-13.86Q314.01-23.67 314.01-40.68ZM338.49-21.96L338.49-21.96L338.49-21.96Q338.49-38.97 347.31-49.68L347.31-49.68L347.31-49.68Q356.67-61.29 372.96-61.29L372.96-61.29L372.96-61.29Q384.75-61.29 390.69-55.57L390.69-55.57L390.69-55.57Q396.63-49.86 396.63-37.80L396.63-37.80L396.63-37.80Q396.63-19.44 387.27-8.73L387.27-8.73L387.27-8.73Q378.00 1.80 362.43 1.80L362.43 1.80L362.43 1.80Q350.28 1.80 344.38-4.27L344.38-4.27L344.38-4.27Q338.49-10.35 338.49-21.96ZM362.16-40.59L362.16-40.59L362.16-40.59Q358.11-24.39 358.11-11.61L358.11-11.61L358.11-11.61Q358.11-8.55 359.14-6.57L359.14-6.57L359.14-6.57Q360.18-4.59 362.92-4.59L362.92-4.59L362.92-4.59Q365.67-4.59 367.38-5.89L367.38-5.89L367.38-5.89Q369.09-7.20 370.44-10.17L370.44-10.17L370.44-10.17Q372.60-15.03 374.62-25.33L374.62-25.33L374.62-25.33Q376.65-35.64 376.83-39.91L376.83-39.91L376.83-39.91Q377.01-44.19 377.01-47.43L377.01-47.43L377.01-47.43Q377.01-50.67 376.02-52.74L376.02-52.74L376.02-52.74Q375.03-54.81 372.37-54.81L372.37-54.81L372.37-54.81Q369.72-54.81 367.92-53.19L367.92-53.19L367.92-53.19Q364.59-50.13 362.16-40.59Z" fill="#fdf0d5"></path></g></g><style>text {
  font-size: 64px;
  font-family: Arial Black;
  dominant-baseline: central;
  text-anchor: middle;
}</style></svg>